<svg width="55" height="55" viewBox="0 0 55 55" fill="none" xmlns="http://www.w3.org/2000/svg">
<path fill-rule="evenodd" clip-rule="evenodd" d="M14.3587 14.3595C14.7866 13.9317 15.3669 13.6914 15.9719 13.6914C16.5769 13.6914 17.1572 13.9317 17.5851 14.3595L28.9937 25.7681C29.4215 26.196 29.6618 26.7762 29.6618 27.3813C29.6618 27.9863 29.4215 28.5666 28.9937 28.9945L17.5851 40.4031C17.1548 40.8187 16.5784 41.0487 15.9801 41.0435C15.3819 41.0383 14.8096 40.7983 14.3865 40.3753C13.9635 39.9522 13.7235 39.3799 13.7183 38.7817C13.7131 38.1834 13.9431 37.6071 14.3587 37.1767L24.1542 27.3813L14.3587 17.5858C13.931 17.1579 13.6907 16.5777 13.6907 15.9726C13.6907 15.3676 13.931 14.7874 14.3587 14.3595ZM28.0491 14.3595C28.477 13.9317 29.0572 13.6914 29.6623 13.6914C30.2673 13.6914 30.8476 13.9317 31.2754 14.3595L42.6841 25.7681C43.1118 26.196 43.3521 26.7762 43.3521 27.3813C43.3521 27.9863 43.1118 28.5666 42.6841 28.9945L31.2754 40.4031C30.8451 40.8187 30.2687 41.0487 29.6705 41.0435C29.0722 41.0383 28.4999 40.7983 28.0769 40.3753C27.6538 39.9522 27.4139 39.3799 27.4087 38.7817C27.4035 38.1834 27.6335 37.6071 28.0491 37.1767L37.8445 27.3813L28.0491 17.5858C27.6213 17.1579 27.381 16.5777 27.381 15.9726C27.381 15.3676 27.6213 14.7874 28.0491 14.3595Z" fill="white"/>
</svg>
