<svg width="40" height="40" viewBox="0 0 40 40" fill="none" xmlns="http://www.w3.org/2000/svg">
<path d="M28.3334 30.0002C26.4834 30.0002 25.0001 31.4835 25.0001 33.3335C25.0001 34.2176 25.3513 35.0654 25.9764 35.6905C26.6015 36.3156 27.4494 36.6668 28.3334 36.6668C29.2175 36.6668 30.0653 36.3156 30.6904 35.6905C31.3156 35.0654 31.6667 34.2176 31.6667 33.3335C31.6667 32.4494 31.3156 31.6016 30.6904 30.9765C30.0653 30.3514 29.2175 30.0002 28.3334 30.0002ZM1.66675 3.3335V6.66683H5.00008L11.0001 19.3168L8.73341 23.4002C8.48341 23.8668 8.33341 24.4168 8.33341 25.0002C8.33341 25.8842 8.6846 26.7321 9.30973 27.3572C9.93485 27.9823 10.7827 28.3335 11.6667 28.3335H31.6667V25.0002H12.3667C12.2562 25.0002 12.1503 24.9563 12.0721 24.8781C11.994 24.8 11.9501 24.694 11.9501 24.5835C11.9501 24.5002 11.9667 24.4335 12.0001 24.3835L13.5001 21.6668H25.9167C27.1667 21.6668 28.2667 20.9668 28.8334 19.9502L34.8001 9.16683C34.9167 8.90016 35.0001 8.61683 35.0001 8.3335C35.0001 7.89147 34.8245 7.46755 34.5119 7.15498C34.1994 6.84242 33.7754 6.66683 33.3334 6.66683H8.68341L7.11675 3.3335M11.6667 30.0002C9.81675 30.0002 8.33341 31.4835 8.33341 33.3335C8.33341 34.2176 8.6846 35.0654 9.30973 35.6905C9.93485 36.3156 10.7827 36.6668 11.6667 36.6668C12.5508 36.6668 13.3986 36.3156 14.0238 35.6905C14.6489 35.0654 15.0001 34.2176 15.0001 33.3335C15.0001 32.4494 14.6489 31.6016 14.0238 30.9765C13.3986 30.3514 12.5508 30.0002 11.6667 30.0002Z" fill="#F7FAFF"/>
</svg>
