<svg width="40" height="40" viewBox="0 0 40 40" fill="none" xmlns="http://www.w3.org/2000/svg">
<path d="M20.0003 6.66669C21.7684 6.66669 23.4641 7.36907 24.7144 8.61931C25.9646 9.86955 26.667 11.5652 26.667 13.3334C26.667 15.1015 25.9646 16.7972 24.7144 18.0474C23.4641 19.2976 21.7684 20 20.0003 20C18.2322 20 16.5365 19.2976 15.2863 18.0474C14.036 16.7972 13.3337 15.1015 13.3337 13.3334C13.3337 11.5652 14.036 9.86955 15.2863 8.61931C16.5365 7.36907 18.2322 6.66669 20.0003 6.66669ZM20.0003 23.3334C27.367 23.3334 33.3337 26.3167 33.3337 30V33.3334H6.66699V30C6.66699 26.3167 12.6337 23.3334 20.0003 23.3334Z" fill="#F7FAFF"/>
</svg>
