<svg width="55" height="55" viewBox="0 0 55 55" fill="none" xmlns="http://www.w3.org/2000/svg">
<path d="M35.9371 5.18652L34.8145 6.41694C32.3006 9.18411 30.2282 10.4214 28.5032 11.2308C26.7782 12.0385 25.3288 12.2798 23.905 13.3699C22.3871 14.5336 20.1812 16.7651 19.252 20.749C17.26 21.1837 15.802 21.9469 14.652 22.9412C13.5157 23.9235 12.6601 25.041 11.6059 26.2577C11.5973 26.2714 11.611 26.2971 11.6059 26.3107C10.0931 28.0494 8.77029 29.9216 6.20335 30.9107L5.13379 31.3385V49.6271H37.7562C39.6266 49.5262 40.9238 48.2307 41.7127 46.9524C42.4999 45.6757 42.9363 44.293 43.157 43.1567C43.7252 40.2612 44.7605 31.9255 44.7605 31.9255L44.8153 31.7663V31.6055C44.7605 30.4486 44.2848 29.4664 43.691 28.556L45.6162 22.8351L48.6657 18.2351L49.5213 17.0047L48.397 15.9899L37.1675 6.25608L35.9371 5.18652ZM36.0449 9.89258L44.9744 17.6482L42.6214 21.1221L42.4622 21.2847L42.4075 21.5516L40.8571 26.1499C40.0476 25.8162 39.2142 25.5817 38.2901 25.616H38.1823L27.3806 25.669H25.6693V32.3003C25.4297 34.1656 24.3927 34.8877 23.1024 35.4028C22.6746 35.5757 22.6215 35.4816 22.2467 35.562V25.6177C21.9661 19.2739 24.225 17.4479 25.991 16.0977C26.4788 15.723 27.9077 15.29 29.9476 14.3334C31.652 13.5308 33.7706 12.0916 36.0449 9.89258ZM18.932 24.5994C18.9251 24.9879 18.8036 25.2617 18.8241 25.669V39.3594H20.5354C20.5354 39.3594 22.3665 39.3388 24.3328 38.5568C26.2991 37.7747 28.6709 35.9436 29.0919 32.7281V29.0916L38.2901 29.0385H38.3432C39.0946 28.9965 39.832 29.2544 40.3935 29.7555C40.955 30.2567 41.2947 30.9602 41.3379 31.7116C41.3311 31.739 41.2524 32.3739 41.2318 32.5142H34.2258V35.9368H40.804C40.6226 37.2596 40.4566 38.0896 40.2684 39.3594H34.2258V42.7819H39.7344C39.5323 43.6099 39.2075 44.403 38.771 45.135C38.3038 45.8965 37.9016 46.184 37.5423 46.2045H8.55638V33.4229C11.3304 31.9512 13.0554 29.8343 14.1711 28.5577C15.328 27.2331 16.122 26.2303 16.8989 25.5629C17.4072 25.1282 18.2029 24.8801 18.932 24.5994Z" fill="white"/>
</svg>
