<svg width="40" height="40" viewBox="0 0 40 40" fill="none" xmlns="http://www.w3.org/2000/svg">
<path d="M30.7333 5.09961H9.26664C8.16252 5.10269 7.1045 5.54266 6.32377 6.3234C5.54303 7.10413 5.10305 8.16215 5.09998 9.26628V30.7329C5.10305 31.8371 5.54303 32.8951 6.32377 33.6758C7.1045 34.4566 8.16252 34.8965 9.26664 34.8996H30.7333C31.8384 34.8996 32.8982 34.4606 33.6796 33.6792C34.461 32.8978 34.9 31.838 34.9 30.7329V9.26628C34.9 8.16121 34.461 7.1014 33.6796 6.32C32.8982 5.5386 31.8384 5.09961 30.7333 5.09961ZM33.2333 30.7329C33.2289 31.3946 32.9641 32.028 32.4963 32.4959C32.0284 32.9638 31.395 33.2286 30.7333 33.2329H9.26664C8.60495 33.2286 7.9716 32.9638 7.5037 32.4959C7.0358 32.028 6.77101 31.3946 6.76664 30.7329V9.26628C6.77101 8.60458 7.0358 7.97123 7.5037 7.50334C7.9716 7.03544 8.60495 6.77064 9.26664 6.76628H30.7333C31.395 6.77064 32.0284 7.03544 32.4963 7.50334C32.9641 7.97123 33.2289 8.60458 33.2333 9.26628V30.7329Z" fill="white"/>
<path d="M10.6266 17.9137C10.6266 17.4717 10.8022 17.0478 11.1148 16.7352C11.4274 16.4227 11.8513 16.2471 12.2933 16.2471C12.7353 16.2471 13.1593 16.4227 13.4718 16.7352C13.7844 17.0478 13.96 17.4717 13.96 17.9137V28.7471C13.96 29.1891 13.7844 29.613 13.4718 29.9256C13.1593 30.2381 12.7353 30.4137 12.2933 30.4137C11.8513 30.4137 11.4274 30.2381 11.1148 29.9256C10.8022 29.613 10.6266 29.1891 10.6266 28.7471V17.9137Z" fill="white"/>
<path d="M12.2933 12.9066C13.2138 12.9066 13.96 12.1604 13.96 11.2399C13.96 10.3194 13.2138 9.57324 12.2933 9.57324C11.3728 9.57324 10.6266 10.3194 10.6266 11.2399C10.6266 12.1604 11.3728 12.9066 12.2933 12.9066Z" fill="white"/>
<path d="M29.3667 22.2829V28.7496C29.3667 29.1916 29.1911 29.6156 28.8785 29.9281C28.5659 30.2407 28.142 30.4163 27.7 30.4163C27.258 30.4163 26.834 30.2407 26.5215 29.9281C26.2089 29.6156 26.0333 29.1916 26.0333 28.7496V22.2829C26.0333 21.5691 25.7497 20.8844 25.2449 20.3796C24.7402 19.8749 24.0555 19.5913 23.3417 19.5913C22.6278 19.5913 21.9431 19.8749 21.4384 20.3796C20.9336 20.8844 20.65 21.5691 20.65 22.2829V28.7496C20.65 29.1916 20.4744 29.6156 20.1618 29.9281C19.8493 30.2407 19.4253 30.4163 18.9833 30.4163C18.5413 30.4163 18.1174 30.2407 17.8048 29.9281C17.4922 29.6156 17.3167 29.1916 17.3167 28.7496V17.9163C17.3235 17.4764 17.5013 17.0565 17.8124 16.7454C18.1235 16.4343 18.5434 16.2565 18.9833 16.2496C19.2656 16.2419 19.5447 16.3106 19.7912 16.4485C20.0376 16.5864 20.2422 16.7883 20.3833 17.0329C21.2998 16.5135 22.3365 16.2438 23.3899 16.2508C24.4433 16.2578 25.4763 16.5412 26.3858 17.0727C27.2953 17.6042 28.0493 18.3652 28.5724 19.2796C29.0955 20.1939 29.3694 21.2295 29.3667 22.2829Z" fill="white"/>
</svg>
