<svg width="55" height="55" viewBox="0 0 55 55" fill="none" xmlns="http://www.w3.org/2000/svg">
<path d="M20.5354 22.8171C20.559 21.009 21.2878 19.2816 22.5664 18.003C23.845 16.7243 25.5724 15.9955 27.3805 15.9719C29.1886 15.9955 30.916 16.7243 32.1947 18.003C33.4733 19.2816 34.2021 21.009 34.2257 22.8171C34.2021 24.6252 33.4733 26.3526 32.1947 27.6312C30.916 28.9098 29.1886 29.6386 27.3805 29.6623C25.5724 29.6386 23.845 28.9098 22.5664 27.6312C21.2878 26.3526 20.559 24.6252 20.5354 22.8171ZM27.3805 43.3526L36.5074 45.6343V38.6066C33.7549 40.2642 30.5933 41.1179 27.3805 41.0709C24.1678 41.1179 21.0061 40.2642 18.2536 38.6066V45.6343M27.3805 9.12673C25.5825 9.09392 23.7967 9.4292 22.133 10.112C20.4692 10.7947 18.9627 11.8105 17.706 13.0969C16.4057 14.355 15.3781 15.8672 14.6873 17.5394C13.9964 19.2116 13.657 21.0081 13.6902 22.8171C13.6664 24.6146 14.0104 26.3981 14.701 28.0578C15.3916 29.7176 16.4142 31.2186 17.706 32.4688C18.9569 33.7676 20.4607 34.7961 22.1247 35.4907C23.7888 36.1854 25.5775 36.5314 27.3805 36.5074C29.1836 36.5314 30.9723 36.1854 32.6363 35.4907C34.3003 34.7961 35.8042 33.7676 37.0551 32.4688C38.3469 31.2186 39.3695 29.7176 40.0601 28.0578C40.7507 26.3981 41.0947 24.6146 41.0709 22.8171C41.1041 21.0081 40.7647 19.2116 40.0738 17.5394C39.3829 15.8672 38.3554 14.355 37.0551 13.0969C35.7984 11.8105 34.2919 10.7947 32.6281 10.112C30.9644 9.4292 29.1786 9.09392 27.3805 9.12673ZM45.6343 22.8171C45.5877 25.0075 45.1472 27.1716 44.3338 29.2059C43.6046 31.2773 42.4983 33.1958 41.0709 34.8646V52.4795L27.3805 47.9161L13.6902 52.4795V34.8646C10.7369 31.548 9.11191 27.258 9.12674 22.8171C9.08652 20.4226 9.53753 18.0453 10.4519 15.8319C11.3663 13.6185 12.7247 11.6161 14.4432 9.94815C16.1173 8.21426 18.129 6.84188 20.3541 5.91572C22.5792 4.98957 24.9706 4.52928 27.3805 4.56328C29.7905 4.52928 32.1818 4.98957 34.407 5.91572C36.6321 6.84188 38.6438 8.21426 40.3179 9.94815C42.0364 11.6161 43.3948 13.6185 44.3092 15.8319C45.2236 18.0453 45.6746 20.4226 45.6343 22.8171Z" fill="white"/>
</svg>
