<svg width="28" height="39" viewBox="0 0 28 39" fill="none" xmlns="http://www.w3.org/2000/svg">
<path fill-rule="evenodd" clip-rule="evenodd" d="M27.3807 11.4086V35.3668C27.3807 36.2745 27.0201 37.145 26.3783 37.7869C25.7364 38.4287 24.8658 38.7893 23.9581 38.7893H3.42259C2.51486 38.7893 1.64431 38.4287 1.00245 37.7869C0.360593 37.145 0 36.2745 0 35.3668V3.42259C0 2.51486 0.360593 1.64431 1.00245 1.00245C1.64431 0.360593 2.51486 0 3.42259 0H15.9721L27.3807 11.4086ZM15.9721 12.5495C15.6695 12.5495 15.3793 12.4293 15.1654 12.2153C14.9514 12.0014 14.8312 11.7112 14.8312 11.4086V2.28173H3.42259C3.12001 2.28173 2.82983 2.40192 2.61588 2.61588C2.40192 2.82983 2.28173 3.12001 2.28173 3.42259V35.3668C2.28173 35.6693 2.40192 35.9595 2.61588 36.1735C2.82983 36.3874 3.12001 36.5076 3.42259 36.5076H23.9581C24.2607 36.5076 24.5509 36.3874 24.7648 36.1735C24.9788 35.9595 25.099 35.6693 25.099 35.3668V12.5495H15.9721ZM17.1129 4.36722L23.0135 10.2678H17.1129V4.36722Z" fill="white"/>
</svg>
